G04 DipTrace 3.1.0.1*
G04 Bottom.gbr*
%MOIN*%
G04 #@! TF.FileFunction,Copper,L2,Bot*
G04 #@! TF.Part,Single*
%AMOUTLINE0*
4,1,8,
0.019685,0.029528,
0.009843,0.03937,
-0.009843,0.03937,
-0.019685,0.029528,
-0.019685,-0.029528,
-0.009843,-0.03937,
0.009843,-0.03937,
0.019685,-0.029528,
0.019685,0.029528,
0*%
%AMOUTLINE3*
4,1,8,
0.029528,-0.019685,
0.03937,-0.009843,
0.03937,0.009843,
0.029528,0.019685,
-0.029528,0.019685,
-0.03937,0.009843,
-0.03937,-0.009843,
-0.029528,-0.019685,
0.029528,-0.019685,
0*%
%AMOUTLINE6*
4,1,8,
-0.019685,-0.029528,
-0.009843,-0.03937,
0.009843,-0.03937,
0.019685,-0.029528,
0.019685,0.029528,
0.009843,0.03937,
-0.009843,0.03937,
-0.019685,0.029528,
-0.019685,-0.029528,
0*%
G04 #@! TA.AperFunction,Conductor*
%ADD13C,0.006*%
G04 #@! TA.AperFunction,ComponentPad*
%ADD14R,0.074803X0.074803*%
%ADD15C,0.074803*%
%ADD16C,0.07*%
%ADD17C,0.07*%
%ADD18R,0.059055X0.059055*%
%ADD19C,0.059055*%
%ADD20C,0.062992*%
%ADD21R,0.062992X0.062992*%
%ADD22R,0.07X0.07*%
%ADD23R,0.066929X0.066929*%
%ADD24C,0.066929*%
%ADD25R,0.122047X0.122047*%
%ADD26C,0.122047*%
%ADD27O,0.03937X0.07874*%
%ADD28O,0.07874X0.03937*%
%ADD69OUTLINE0*%
%ADD72OUTLINE3*%
%ADD75OUTLINE6*%
%FSLAX26Y26*%
G04*
G70*
G90*
G75*
G01*
G04 Bottom*
%LPD*%
X1006500Y3019000D2*
D13*
X1045028Y3057528D1*
Y3532000D1*
X1033028Y3544000D1*
X719000D1*
X3531500Y2969000D2*
X3825492D1*
X3837493Y2981001D1*
Y3413000D1*
X2106500Y3269000D2*
Y3169000D1*
X1081500Y2056500D2*
X818500D1*
X806500Y2044500D1*
Y1856500D1*
X1856500Y1896362D2*
X2044000Y1708862D1*
Y1519000D1*
X2131500Y2069000D2*
X2019000Y2181500D1*
Y2481500D1*
X906500Y3019000D2*
Y2881500D1*
X819000Y2794000D1*
X2106500Y1056500D2*
Y977000D1*
X2131500Y952000D1*
Y706500D1*
X4312493Y3625500D2*
Y3275500D1*
X1869000Y4119000D2*
X1823000Y4165000D1*
X1602500D1*
X1544000Y4106500D1*
X2656501Y1244000D2*
Y1584913D1*
X2662406Y1590818D1*
Y1654335D1*
X2494000Y4119000D2*
X2431500Y4181500D1*
X2256500D1*
X2194000Y4119000D1*
X2131500Y706500D2*
X2313535D1*
X2356000Y748965D1*
X2526535D1*
X2569000Y706500D1*
X2106500Y3169000D2*
X2067972Y3130472D1*
X2031000D1*
X2019000Y3118472D1*
Y2942472D1*
X2031000Y2930472D1*
X2367972D1*
X2406500Y2969000D1*
X3244000Y2131500D2*
Y2031500D1*
X3231500Y3169000D2*
Y3269000D1*
X2106500Y977000D2*
X2094500Y965000D1*
X1893500D1*
X1864500Y994000D1*
X1719000D1*
X3744000Y4119000D2*
X3697500Y4165500D1*
X3440500D1*
X3406500Y4131500D1*
X3837493Y3413000D2*
X3744000Y3506493D1*
Y4119000D1*
X2406500Y2969000D2*
X2485463Y3047963D1*
Y3160463D1*
X2706500Y3381500D1*
X2031000Y3130472D2*
X1992472Y3169000D1*
X1919000D1*
X856500Y1381500D2*
X956500D1*
X1206500Y1131500D1*
X806500Y1856500D2*
X856500Y1806500D1*
Y1381500D1*
X2569000Y706500D2*
X2656500Y619000D1*
X3331500D1*
X2344000Y944000D2*
Y760965D1*
X2356000Y748965D1*
X1893500Y965000D2*
X1881500Y953000D1*
Y908862D1*
X2044000Y1519000D2*
Y1119000D1*
X2106500Y1056500D1*
X2019000Y2481500D2*
Y2918472D1*
X2031000Y2930472D1*
X781500Y2281500D2*
Y2192945D1*
X818500Y2155945D1*
Y2056500D1*
X819000Y2794000D2*
X856500D1*
Y2356500D1*
X781500Y2281500D1*
X4319000Y1131500D2*
Y781500D1*
Y1494000D2*
Y1131500D1*
Y1844000D2*
Y1494000D1*
X4312493Y2525500D2*
X4319000Y2518993D1*
Y1844000D1*
X4312493Y2913000D2*
Y2525500D1*
Y3275500D2*
Y2913000D1*
X1594000Y2456500D2*
X1705319Y2345181D1*
Y1756500D1*
X1206500Y1031500D2*
X1089079Y914079D1*
Y694000D1*
X1081500Y2156500D2*
X1281500Y2356500D1*
Y2769000D1*
X1705319Y1756500D2*
Y1517819D1*
X1606500Y1419000D1*
X4212493Y2525500D2*
X3965992D1*
X3953992Y2537500D1*
Y2966999D1*
X3999993Y3013000D1*
X4219000Y781500D2*
X4269000Y831500D1*
Y1770000D1*
X4241000Y1798000D1*
X4065000D1*
X3994000Y1869000D1*
X1356500Y2006500D2*
Y2206500D1*
X1394000Y2244000D1*
Y2456500D1*
X4212493Y3625500D2*
X3999993Y3413000D1*
Y3175500D1*
X4212493Y3275500D2*
Y3063000D1*
X3999993Y2850500D1*
X1406500Y1419000D2*
Y1194000D1*
Y1129642D1*
X1419000Y1117142D1*
Y994000D1*
X4212493Y2913000D2*
Y2687500D1*
X4200493Y2675500D1*
X3999993D1*
X4219000Y1494000D2*
Y1694500D1*
X4207000Y1706500D1*
X3994000D1*
X3699993Y3013000D2*
X3643993Y3069000D1*
X3531500D1*
X2981500Y2356500D2*
Y2142693D1*
X2910185Y2071378D1*
Y990315D1*
X2956500Y944000D1*
X4219000Y1131500D2*
X4069000Y1281500D1*
Y1544000D1*
X3994000D1*
X3544000Y2031500D2*
X3344000Y2231500D1*
X3244000D1*
X2856500Y2981500D2*
X2810500Y3027500D1*
Y3409996D1*
X2798500Y3421996D1*
X2666004D1*
X2654004Y3433996D1*
Y4177500D1*
X2683004Y4206500D1*
X3869000D1*
X3956500Y4119000D1*
X2856500Y3144000D2*
Y3994000D1*
X2981500Y4119000D1*
X3306500Y4131500D2*
Y3608556D1*
X3005472Y3307528D1*
Y2831000D1*
X2993472Y2819000D1*
X2856500D1*
X3644000Y4119000D2*
Y3844000D1*
X3425711Y3625711D1*
Y2668500D1*
X3413711Y2656500D1*
X2856500D1*
X1769000Y4119000D2*
X1530948Y3880948D1*
X1455948D1*
X1319000Y3744000D1*
X994000Y3444000D2*
Y3404248D1*
X1006500Y3391748D1*
Y3319000D1*
Y3219000D1*
X806500Y3019000D1*
X1156500Y3444000D2*
X1106500Y3394000D1*
Y3319000D1*
X1319000Y3444000D2*
Y3404252D1*
X1306500Y3391752D1*
Y3319000D1*
X1494000Y3444000D2*
X1418500D1*
X1406500Y3432000D1*
Y3319000D1*
X2456500Y1394000D2*
Y1781500D1*
X2406500Y1831500D1*
X3044000Y3694000D2*
X2980598D1*
X2968594Y3681996D1*
Y2878193D1*
X2956592Y2866190D1*
X2781500D1*
Y2533319D1*
X2844000D1*
Y1880068D1*
X2806500D1*
Y994000D1*
X2756500Y944000D1*
X3156500Y769000D2*
Y826996D1*
X3156501Y826997D1*
Y944000D1*
X904039Y694000D2*
X806500Y791539D1*
Y1756500D1*
X3531500Y3369000D2*
X3469433Y3306933D1*
Y2614661D1*
X3457430Y2602659D1*
X2893500D1*
X2881500Y2590659D1*
Y2356500D1*
X3869000Y2394000D2*
X3909496Y2353504D1*
Y2243500D1*
X3921496Y2231500D1*
Y1526689D1*
X4056500Y1391685D1*
Y1006500D1*
X4037000D1*
X4012000Y981500D1*
X3969000D1*
X3944000Y1006500D1*
Y1105140D1*
X3994000D1*
Y1269000D1*
X3906500D1*
X3969000Y981500D2*
X3954870Y967370D1*
Y770630D1*
X3994000Y731500D1*
X3909496Y2243500D2*
X3897496Y2231500D1*
X3544000D1*
X2706500Y3481500D2*
Y4141000D1*
X2747000Y4181500D1*
X3144000D1*
Y3834500D1*
X3103500Y3794000D1*
X3044000D1*
X1156500Y4031500D2*
Y3983130D1*
X1007205D1*
X983835Y4006500D1*
X694000D1*
X644000Y3956500D1*
X619000Y3544000D2*
Y3331000D1*
X631000Y3319000D1*
X806500D1*
X644000Y3956500D2*
Y3799319D1*
X619000Y3774319D1*
Y3544000D1*
X3831500Y1031500D2*
Y1157000D1*
X3843500Y1169000D1*
X3906500D1*
X944000Y4131500D2*
X995626Y4079874D1*
X1056500D1*
Y4031500D1*
X1071264D1*
Y4079874D1*
X1083264Y4091874D1*
X1233028D1*
X1245028Y4079874D1*
Y2893335D1*
X1257028Y2881335D1*
X1763144D1*
X1775146Y2869333D1*
Y1973839D1*
X1787147Y1961839D1*
X2599469D1*
X2611469Y1949839D1*
Y905472D1*
X2623469Y893472D1*
X2805972D1*
X2856500Y944000D1*
X3244000Y1931500D2*
X3347967Y1827533D1*
Y1423976D1*
X3359969Y1411975D1*
X3954870D1*
X4019000Y1347845D1*
Y1040500D1*
X3994000Y1065500D1*
Y1031500D1*
X3231500Y3069000D2*
X3348719Y3186219D1*
Y3794500D1*
X3360719Y3806500D1*
X3531500D1*
X919000Y2794000D2*
X1069500D1*
X1081500Y2782000D1*
X1106500Y2807000D1*
Y3019000D1*
X1656500Y2206500D2*
X1494000Y2369000D1*
Y2456500D1*
X1856500Y2294000D2*
X1919000Y2356500D1*
Y2481500D1*
X1081500Y2782000D2*
Y2706500D1*
X1106500Y3019000D2*
X1057028Y3068472D1*
Y3843472D1*
X944000Y3956500D1*
X1494000Y2456500D2*
Y2583862D1*
X1679138Y2769000D1*
X2656500Y944000D2*
X2695031Y982531D1*
Y1332531D1*
X2756500Y1394000D1*
X2106500Y1156500D2*
X2231500D1*
X2444000Y944000D1*
X1706500Y1194000D2*
X1769000D1*
X1881500Y1306500D1*
X3906500Y1219000D2*
X3797500D1*
X3785500Y1207000D1*
Y777500D1*
X3831500Y731500D1*
X1881500Y1306500D2*
X1944000Y1369000D1*
Y1519000D1*
X1506500Y1419000D2*
Y1482181D1*
X1307681Y1681000D1*
X1295681Y1669000D1*
X1206500D1*
X2744000Y2244000D2*
X2644000Y2344000D1*
Y2820504D1*
X2758996Y2935500D1*
X2915038D1*
X2927041Y2947503D1*
Y3732000D1*
X2939041Y3744000D1*
X3044000D1*
X2756500Y1394000D2*
Y2071815D1*
X2744000Y2084315D1*
Y2244000D1*
X1307681Y1681000D2*
Y1756500D1*
X1881500Y1306500D2*
X1619000D1*
X1506500Y1419000D1*
D14*
X1394000Y2456500D3*
D15*
X1494000D3*
X1594000D3*
D16*
X1656500Y2206500D3*
D17*
X1356500D3*
D16*
Y2006500D3*
D17*
X1656500D3*
D18*
X1281500Y2769000D3*
D19*
X1679138D3*
D20*
X1081500Y2056500D3*
D21*
Y2156500D3*
D18*
X1856500Y2294000D3*
D19*
Y1896362D3*
D20*
X2131500Y2069000D3*
D21*
Y2169000D3*
X1919000Y2481500D3*
D20*
X2019000D3*
D16*
X1081500Y2706500D3*
D17*
Y2406500D3*
D16*
X781500Y2381500D3*
D22*
Y2281500D3*
D14*
X1406500Y1419000D3*
D15*
X1506500D3*
X1606500D3*
D16*
X1706500Y1194000D3*
D17*
X1406500D3*
D16*
X1419000Y994000D3*
D17*
X1719000D3*
D18*
X1705319Y1756500D3*
D19*
X1307681D3*
D20*
X1206500Y1131500D3*
D21*
Y1031500D3*
D18*
X1881500Y1306500D3*
D19*
Y908862D3*
D20*
X2106500Y1056500D3*
D21*
Y1156500D3*
X1944000Y1519000D3*
D20*
X2044000D3*
D16*
X1206500Y1669000D3*
D17*
Y1369000D3*
D16*
X856500Y1281500D3*
D22*
Y1381500D3*
D23*
X806500Y1756500D3*
D24*
Y1856500D3*
D18*
X3231500Y3369000D3*
D19*
Y3269000D3*
Y3169000D3*
Y3069000D3*
Y2969000D3*
Y2869000D3*
Y2769000D3*
X3531500D3*
Y2869000D3*
Y2969000D3*
Y3069000D3*
Y3169000D3*
Y3269000D3*
Y3369000D3*
D16*
X3699993Y3175500D3*
D17*
X3999993D3*
D16*
X4212493Y3625500D3*
D22*
X4312493D3*
D16*
X3699993Y3013000D3*
D17*
X3999993D3*
D16*
X4212493Y2525500D3*
D22*
X4312493D3*
D16*
X3699993Y2850500D3*
D17*
X3999993D3*
D16*
X4212493Y3275500D3*
D22*
X4312493D3*
D16*
X3699993Y2675500D3*
D17*
X3999993D3*
D16*
X4212493Y2913000D3*
D22*
X4312493D3*
D20*
X3837493Y3413000D3*
D21*
Y3513000D3*
D20*
X3056500Y3069000D3*
D21*
Y3169000D3*
D18*
X3244000Y2231500D3*
D19*
Y2131500D3*
Y2031500D3*
Y1931500D3*
Y1831500D3*
Y1731500D3*
Y1631500D3*
X3544000D3*
Y1731500D3*
Y1831500D3*
Y1931500D3*
Y2031500D3*
Y2131500D3*
Y2231500D3*
D16*
X3694000Y2031500D3*
D17*
X3994000D3*
D16*
X4219000Y1844000D3*
D22*
X4319000D3*
D16*
X3694000Y1869000D3*
D17*
X3994000D3*
D16*
X4219000Y781500D3*
D22*
X4319000D3*
D16*
X3694000Y1706500D3*
D17*
X3994000D3*
D16*
X4219000Y1494000D3*
D22*
X4319000D3*
D16*
X3694000Y1544000D3*
D17*
X3994000D3*
D16*
X4219000Y1131500D3*
D22*
X4319000D3*
D20*
X3869000Y2294000D3*
D21*
Y2394000D3*
D20*
X3006500Y1931500D3*
D21*
Y2031500D3*
D18*
X2106500Y3369000D3*
D19*
Y3269000D3*
Y3169000D3*
Y3069000D3*
Y2969000D3*
Y2869000D3*
Y2769000D3*
X2406500D3*
Y2869000D3*
Y2969000D3*
Y3069000D3*
Y3169000D3*
Y3269000D3*
Y3369000D3*
D16*
X2556500Y3144000D3*
D17*
X2856500D3*
D16*
X2981500Y4119000D3*
D22*
X3081500D3*
D16*
X2556500Y2981500D3*
D17*
X2856500D3*
D16*
X3956500Y4119000D3*
D22*
X4056500D3*
D16*
X2556500Y2819000D3*
D17*
X2856500D3*
D16*
X3306500Y4131500D3*
D22*
X3406500D3*
D16*
X2556500Y2656500D3*
D17*
X2856500D3*
D16*
X3644000Y4119000D3*
D22*
X3744000D3*
D20*
X2706500Y3381500D3*
D21*
Y3481500D3*
D20*
X1919000Y3069000D3*
D21*
Y3169000D3*
D18*
X806500Y3019000D3*
D19*
X906500D3*
X1006500D3*
X1106500D3*
X1206500D3*
X1306500D3*
X1406500D3*
Y3319000D3*
X1306500D3*
X1206500D3*
X1106500D3*
X1006500D3*
X906500D3*
X806500D3*
D16*
X994000Y3444000D3*
D17*
Y3744000D3*
D16*
X1444000Y4106500D3*
D22*
X1544000D3*
D16*
X1156500Y3444000D3*
D17*
Y3744000D3*
D16*
X2394000Y4119000D3*
D22*
X2494000D3*
D16*
X1319000Y3444000D3*
D17*
Y3744000D3*
D16*
X1769000Y4119000D3*
D22*
X1869000D3*
D16*
X1494000Y3444000D3*
D17*
Y3744000D3*
D16*
X2094000Y4119000D3*
D22*
X2194000D3*
D20*
X719000Y3544000D3*
D21*
X619000D3*
D20*
X919000Y2794000D3*
D21*
X819000D3*
D18*
X2656500Y944000D3*
D19*
X2756500D3*
X2856500D3*
X2956500D3*
X3056501D3*
X3156501D3*
X3256500D3*
X3356501D3*
X3456501D3*
X3556500D3*
X2656501Y1244000D3*
X2756501D3*
X2856501D3*
X2956500D3*
X3056501D3*
X3156501D3*
X3256500D3*
X3356501D3*
X3456501D3*
X3556500D3*
D20*
X2444000Y944000D3*
D21*
X2344000D3*
D25*
X719000Y694000D3*
D26*
X904039D3*
X1089079D3*
D16*
X3156500Y469000D3*
D17*
Y769000D3*
D16*
X3431500Y619000D3*
D22*
X3331500D3*
D23*
X2131500Y706500D3*
D24*
Y529335D3*
X2387406D3*
Y706500D3*
D23*
X2569000D3*
D24*
Y529335D3*
X2824906D3*
Y706500D3*
D23*
X2662406Y1654335D3*
D24*
Y1831500D3*
X2406500D3*
Y1654335D3*
D16*
X2756500Y1394000D3*
D17*
X2456500D3*
D69*
X2981500Y2356500D3*
D27*
X2931500D3*
X2881500D3*
D16*
X2744000Y2244000D3*
D17*
X2444000D3*
D16*
Y2406500D3*
D17*
X2744000D3*
D72*
X3906500Y1169000D3*
D28*
Y1219000D3*
Y1269000D3*
D16*
X3831500Y1031500D3*
D17*
Y731500D3*
D16*
X3994000Y1031500D3*
D17*
Y731500D3*
D72*
X3044000Y3694000D3*
D28*
Y3744000D3*
Y3794000D3*
D16*
X3231500Y3656500D3*
D17*
X3531500D3*
D16*
Y3806500D3*
D17*
X3231500D3*
D75*
X1056500Y4031500D3*
D27*
X1106500D3*
X1156500D3*
D16*
X944000Y4131500D3*
D17*
X644000D3*
D16*
X944000Y3956500D3*
D17*
X644000D3*
M02*
