M48
INCH
T01C0.0276
T02C0.035
T03C0.0354
T04C0.0394
T05C0.0433
T06C0.0728
T07C0.112
%
T01
X+029815Y+023565
X+029315Y+023565
X+028815Y+023565
X+039065Y+012690
X+039065Y+012190
X+039065Y+011690
X+011565Y+040315
X+011065Y+040315
X+010565Y+040315
T02
X+016565Y+022065
X+016565Y+020065
X+013565Y+020065
X+013565Y+022065
X+010815Y+024065
X+010815Y+027065
X+007815Y+023815
X+007815Y+022815
X+012065Y+016690
X+012065Y+013690
X+014065Y+011940
X+014190Y+009940
X+017190Y+009940
X+017065Y+011940
X+024565Y+013940
X+027565Y+013940
X+031565Y+007690
X+033315Y+006190
X+034315Y+006190
X+031565Y+004690
X+038315Y+007315
X+039940Y+007315
X+042190Y+007815
X+043190Y+007815
X+043190Y+011315
X+042190Y+011315
X+039940Y+010315
X+038315Y+010315
X+036940Y+015440
X+036940Y+017065
X+036940Y+018690
X+036940Y+020315
X+039940Y+020315
X+039940Y+018690
X+039940Y+017065
X+039940Y+015440
X+042190Y+014940
X+043190Y+014940
X+043190Y+018440
X+042190Y+018440
X+042125Y+025255
X+043125Y+025255
X+040000Y+026755
X+040000Y+028505
X+040000Y+030130
X+040000Y+031755
X+042125Y+032755
X+043125Y+032755
X+043125Y+036255
X+042125Y+036255
X+040565Y+041190
X+039565Y+041190
X+037440Y+041190
X+036440Y+041190
X+034065Y+041315
X+033065Y+041315
X+030815Y+041190
X+029815Y+041190
X+030440Y+037940
X+030440Y+037440
X+030440Y+036940
X+032315Y+036565
X+032315Y+038065
X+035315Y+038065
X+035315Y+036565
X+037000Y+031755
X+037000Y+030130
X+037000Y+028505
X+037000Y+026755
X+042125Y+029130
X+043125Y+029130
X+028565Y+029815
X+028565Y+031440
X+025565Y+031440
X+025565Y+029815
X+025565Y+028190
X+025565Y+026565
X+024440Y+024065
X+024440Y+022440
X+027440Y+022440
X+027440Y+024065
X+028565Y+026565
X+028565Y+028190
X+024940Y+041190
X+023940Y+041190
X+021940Y+041190
X+020940Y+041190
X+018690Y+041190
X+017690Y+041190
X+015440Y+041065
X+014440Y+041065
X+014940Y+037440
X+013190Y+037440
X+011565Y+037440
X+009940Y+037440
X+009440Y+039565
X+009440Y+041315
X+006440Y+041315
X+006440Y+039565
X+009940Y+034440
X+011565Y+034440
X+013190Y+034440
X+014940Y+034440
X+008565Y+013815
X+008565Y+012815
T03
X+012815Y+027690
X+013065Y+030190
X+014065Y+030190
X+012065Y+030190
X+011065Y+030190
X+010065Y+030190
X+009065Y+030190
X+008065Y+030190
X+008065Y+033190
X+009065Y+033190
X+010065Y+033190
X+011065Y+033190
X+012065Y+033190
X+013065Y+033190
X+014065Y+033190
X+016791Y+027690
X+019190Y+024815
X+020190Y+024815
X+018565Y+022940
X+018565Y+018964
X+017053Y+017565
X+019440Y+015190
X+020440Y+015190
X+018815Y+013065
X+018815Y+009089
X+026565Y+009440
X+027565Y+009440
X+028565Y+009440
X+029565Y+009440
X+030565Y+009440
X+031565Y+009440
X+032565Y+009440
X+033565Y+009440
X+034565Y+009440
X+035565Y+009440
X+035565Y+012440
X+034565Y+012440
X+033565Y+012440
X+032565Y+012440
X+031565Y+012440
X+030565Y+012440
X+029565Y+012440
X+028565Y+012440
X+027565Y+012440
X+026565Y+012440
X+032440Y+016315
X+032440Y+017315
X+032440Y+018315
X+032440Y+019315
X+032440Y+020315
X+032440Y+021315
X+032440Y+022315
X+035440Y+022315
X+035440Y+021315
X+035440Y+020315
X+035440Y+019315
X+035440Y+018315
X+035440Y+017315
X+035440Y+016315
X+035315Y+027690
X+035315Y+028690
X+035315Y+029690
X+035315Y+030690
X+035315Y+031690
X+035315Y+032690
X+035315Y+033690
X+032315Y+033690
X+032315Y+032690
X+032315Y+031690
X+032315Y+030690
X+032315Y+029690
X+032315Y+028690
X+032315Y+027690
X+024065Y+027690
X+024065Y+028690
X+024065Y+029690
X+024065Y+030690
X+024065Y+031690
X+024065Y+032690
X+024065Y+033690
X+021065Y+033690
X+021065Y+032690
X+021065Y+031690
X+021065Y+030690
X+021065Y+029690
X+021065Y+028690
X+021065Y+027690
X+013077Y+017565
T04
X+010815Y+020565
X+010815Y+021565
X+009190Y+027940
X+008190Y+027940
X+007190Y+035440
X+006190Y+035440
X+019190Y+031690
X+019190Y+030690
X+027065Y+033815
X+027065Y+034815
X+030565Y+031690
X+030565Y+030690
X+038375Y+034130
X+038375Y+035130
X+038690Y+023940
X+038690Y+022940
X+030065Y+020315
X+030065Y+019315
X+026624Y+018315
X+026624Y+016543
X+024065Y+016543
X+024065Y+018315
X+021315Y+020690
X+021315Y+021690
X+021065Y+011565
X+021065Y+010565
X+023440Y+009440
X+024440Y+009440
X+023874Y+007065
X+023874Y+005293
X+025690Y+005293
X+025690Y+007065
X+028249Y+007065
X+028249Y+005293
X+021315Y+005293
X+021315Y+007065
X+012065Y+010315
X+012065Y+011315
T05
X+013940Y+024565
X+014940Y+024565
X+015940Y+024565
X+008065Y+018565
X+008065Y+017565
X+014065Y+014190
X+015065Y+014190
X+016065Y+014190
T06
X+007190Y+006940
X+009040Y+006940
X+010891Y+006940
T07
X+043815Y+040690
X+044190Y+005565
X+006065Y+010190
X+005690Y+031565
T00
M30
