G04 DipTrace 3.1.0.1*
G04 Bottom.gbr*
%MOIN*%
G04 #@! TF.FileFunction,Copper,L2,Bot*
G04 #@! TF.Part,Single*
%AMOUTLINE0*
4,1,8,
0.019685,0.029528,
0.009843,0.03937,
-0.009843,0.03937,
-0.019685,0.029528,
-0.019685,-0.029528,
-0.009843,-0.03937,
0.009843,-0.03937,
0.019685,-0.029528,
0.019685,0.029528,
0*%
%AMOUTLINE3*
4,1,8,
0.029528,-0.019685,
0.03937,-0.009843,
0.03937,0.009843,
0.029528,0.019685,
-0.029528,0.019685,
-0.03937,0.009843,
-0.03937,-0.009843,
-0.029528,-0.019685,
0.029528,-0.019685,
0*%
%AMOUTLINE6*
4,1,8,
-0.019685,-0.029528,
-0.009843,-0.03937,
0.009843,-0.03937,
0.019685,-0.029528,
0.019685,0.029528,
0.009843,0.03937,
-0.009843,0.03937,
-0.019685,0.029528,
-0.019685,-0.029528,
0*%
G04 #@! TA.AperFunction,Conductor*
%ADD13C,0.006*%
G04 #@! TA.AperFunction,ComponentPad*
%ADD14R,0.074803X0.074803*%
%ADD15C,0.074803*%
%ADD16C,0.07*%
%ADD17C,0.07*%
%ADD18R,0.059055X0.059055*%
%ADD19C,0.059055*%
%ADD20C,0.062992*%
%ADD21R,0.062992X0.062992*%
%ADD22R,0.07X0.07*%
%ADD23R,0.066929X0.066929*%
%ADD24C,0.066929*%
%ADD25R,0.122047X0.122047*%
%ADD26C,0.122047*%
%ADD27O,0.04X0.07*%
%ADD28O,0.07X0.04*%
%ADD29O,0.07X0.035*%
G04 #@! TA.AperFunction,ViaPad*
%ADD30C,0.04*%
G04 #@! TA.AperFunction,ComponentPad*
%ADD77OUTLINE0*%
%ADD80OUTLINE3*%
%ADD83OUTLINE6*%
%FSLAX26Y26*%
G04*
G70*
G90*
G75*
G01*
G04 Bottom*
%LPD*%
X3531500Y2969000D2*
D13*
X3591028Y3028528D1*
Y3166534D1*
X3837493Y3413000D1*
X4319000Y781500D2*
Y1131500D1*
X2406500Y2969000D2*
X2466028Y3028528D1*
Y3348500D1*
X2499028Y3381500D1*
X2706500D1*
X1206500Y3319000D2*
Y3219000D1*
X1006500Y3019000D1*
X1656500Y2006500D2*
X1823500D1*
X1856500Y1973500D1*
Y1896362D1*
X2569000Y706500D2*
X2505535Y769965D1*
X2227969D1*
Y739501D1*
X2194969Y706500D1*
X2131500D1*
X1881500Y908862D2*
X2073500D1*
X2106500Y941862D1*
X2227969Y820394D1*
Y769965D1*
X2662406Y1654335D2*
Y1527819D1*
X2656501Y1521915D1*
Y1244000D1*
X2106500Y3269000D2*
Y3169000D1*
X1823500Y2006500D2*
X1919000Y2102000D1*
X2031500D1*
Y2481500D1*
X3081500Y4119000D2*
X3016500Y4184000D1*
X2559000D1*
X2494000Y4119000D1*
X781500Y2281500D2*
Y2179500D1*
X839500Y2121500D1*
Y2056500D1*
X806500Y2023500D1*
Y1856500D1*
X3244000Y2031500D2*
Y2131500D1*
X2106500Y1056500D2*
Y977000D1*
X2139500Y944000D1*
X2344000D1*
X2031500Y2102000D2*
X2064500Y2069000D1*
X2131500D1*
X3231500Y3269000D2*
Y3169000D1*
X4312493Y3625500D2*
Y3863007D1*
X4056500Y4119000D1*
X4312493Y3275500D2*
Y3625500D1*
Y2913000D2*
Y3275500D1*
Y2525500D2*
Y2913000D1*
X4319000Y1844000D2*
Y2391249D1*
X4312493Y2397756D1*
Y2525500D1*
X4319000Y1494000D2*
Y1844000D1*
Y1131500D2*
Y1494000D1*
X856500Y1381500D2*
X956500D1*
X1206500Y1131500D1*
X806500Y1856500D2*
X869965D1*
X902965Y1823500D1*
Y1683268D1*
X856500Y1636803D1*
Y1381500D1*
X1081500Y2056500D2*
X839500D1*
X819000Y2794000D2*
X683500Y2658500D1*
Y2379500D1*
X781500Y2281500D1*
X906500Y3019000D2*
Y2959472D1*
X873500Y2926472D1*
X852000D1*
X819000Y2893472D1*
Y2794000D1*
X1006500Y3019000D2*
X906500D1*
X2106500Y941862D2*
X2108638Y944000D1*
X2139500D1*
X2106500Y1056500D2*
D3*
X2044000Y1519000D2*
Y1087996D1*
X2075496Y1056500D1*
X2106500D1*
X1856500Y1896362D2*
X2044000Y1708862D1*
Y1519000D1*
X2106500Y3169000D2*
X2031500D1*
Y3135996D1*
X1998496Y3169000D1*
X1919000D1*
X2031500Y2481500D2*
Y3135996D1*
X3244000Y2131500D2*
X3106500D1*
X3006500Y2031500D1*
X1081500Y2156500D2*
X1281500Y2356500D1*
Y2490906D1*
X1314500Y2523906D1*
X1526594D1*
X1594000Y2456500D1*
X1206500Y1031500D2*
X1089079Y914079D1*
Y694000D1*
X1314500Y2523906D2*
X1281500Y2556906D1*
Y2769000D1*
X1705319Y1756500D2*
Y1517819D1*
X1606500Y1419000D1*
X1594000Y2456500D2*
Y2272752D1*
X1591500Y2270252D1*
Y1870319D1*
X1705319Y1756500D1*
X4212493Y2525500D2*
X3963496D1*
X3930496Y2558500D1*
Y2943503D1*
X3999993Y3013000D1*
X4219000Y781500D2*
X4092000Y908500D1*
Y1771000D1*
X3994000Y1869000D1*
X1356500Y2006500D2*
Y2206500D1*
Y2337346D1*
X1394000Y2374846D1*
Y2456500D1*
X4212493Y3625500D2*
X3999993Y3413000D1*
Y3175500D1*
X4212493Y3275500D2*
X4064996Y3128003D1*
Y2915503D1*
X3999993Y2850500D1*
X1406500Y1419000D2*
Y1194000D1*
Y1071500D1*
X1419000Y1059000D1*
Y994000D1*
X4212493Y2913000D2*
Y2708500D1*
X4179493Y2675500D1*
X3999993D1*
X2444000Y2244000D2*
X2521500Y2166500D1*
Y835965D1*
X2554500Y802965D1*
X2815465D1*
X2956500Y944000D1*
X4219000Y1131500D2*
X4125000Y1225500D1*
Y1901000D1*
X4092000Y1934000D1*
X3962000D1*
X3929000Y1901000D1*
Y1609000D1*
X3994000Y1544000D1*
X3544000Y2031500D2*
X3344000Y2231500D1*
X3244000D1*
X2856500Y3144000D2*
Y3994000D1*
X2981500Y4119000D1*
X3306500Y4131500D2*
Y4022741D1*
X3146370Y3862612D1*
Y2852000D1*
X3113370Y2819000D1*
X2856500D1*
X3644000Y4119000D2*
Y3754500D1*
X3611000Y3721500D1*
X3362500D1*
X3329500Y3688500D1*
Y2689500D1*
X3296500Y2656500D1*
X2856500D1*
X2556500D2*
X2439500D1*
X2406500Y2689500D1*
Y2769000D1*
X1769000Y4119000D2*
X1539017Y3889017D1*
X1464017D1*
X1319000Y3744000D1*
X2094000Y4119000D2*
X1719000Y3744000D1*
X1494000D1*
X994000Y3444000D2*
Y3378528D1*
X1006500D1*
Y3319000D1*
X806500Y3119000D1*
Y3019000D1*
X1156500Y3444000D2*
Y3378528D1*
X1106500D1*
Y3319000D1*
X1319000Y3444000D2*
Y3378528D1*
X1306500D1*
Y3319000D1*
X1494000Y3444000D2*
X1406500D1*
Y3319000D1*
X2456500Y1394000D2*
X2343035Y1507465D1*
Y1768035D1*
X2406500Y1831500D1*
X3044000Y3694000D2*
X2954500D1*
X2921500Y3661000D1*
Y3079500D1*
X2888500Y3046500D1*
X2654500D1*
X2621500Y3013500D1*
Y2592000D1*
X2554500Y2525000D1*
Y917472D1*
X2587500Y884472D1*
X2726972D1*
X2756500Y914000D1*
Y944000D1*
X3156501D2*
X3156500Y769000D1*
X904039Y694000D2*
Y1076996D1*
X710035Y1271000D1*
Y1660035D1*
X806500Y1756500D1*
X2824906Y529335D2*
X2981165D1*
X3135831Y684000D1*
X3323500D1*
X3356501Y717001D1*
Y944000D1*
X3531500Y3369000D2*
X3433504Y3271004D1*
Y2458870D1*
X3400504Y2425870D1*
X2881500D1*
X2828370D1*
X2809000Y2406500D1*
X2744000D1*
X2881500Y2425870D2*
Y2356500D1*
X3994000Y731500D2*
X4059000Y796500D1*
Y1236000D1*
X4026000Y1269000D1*
X3906500D1*
X3807504D1*
X3774504Y1302000D1*
Y2231500D1*
Y2299504D1*
X3869000Y2394000D1*
X3774504Y2231500D2*
X3544000D1*
X2706500Y3481500D2*
X2328996Y3859004D1*
Y4217000D1*
X2361996Y4250000D1*
X3113500D1*
X3146500Y4217000D1*
Y4025244D1*
X3113370Y3992114D1*
Y3794000D1*
X3044000D1*
X644000Y3956500D2*
Y3871000D1*
X619000Y3846000D1*
Y3544000D1*
Y3352000D1*
X652000Y3319000D1*
X806500D1*
X3831500Y1031500D2*
Y1169000D1*
X3906500D1*
X2217996Y1145008D2*
Y3572496D1*
X2184996Y3605496D1*
X1254500D1*
X1221500Y3638496D1*
Y3858504D1*
X1188500Y3891504D1*
X1089500D1*
X1056500Y3924504D1*
Y4031500D1*
Y4131500D1*
X944000D1*
X3231500Y3069000D2*
X3296500Y3134000D1*
Y3773500D1*
X3329500Y3806500D1*
X3531500D1*
X919000Y2794000D2*
X1029713D1*
X1064240Y2828528D1*
X1087500D1*
X1619610D1*
X1679138Y2769000D1*
X1106500Y3019000D2*
Y2871028D1*
X1087500Y2852028D1*
Y2828528D1*
X1656500Y2206500D2*
Y2302980D1*
X1679138Y2325618D1*
Y2769000D1*
X1856500Y2294000D2*
X1931500Y2369000D1*
Y2481500D1*
X1679138Y2769000D2*
X1886000D1*
X1919000Y2802000D1*
Y3069000D1*
X1087500Y2828528D2*
Y2777500D1*
X1081500Y2771500D1*
Y2706500D1*
X2931500Y2356500D2*
Y2277000D1*
X2898500Y2244000D1*
X2744000D1*
X2656500Y944000D2*
X2587500Y1013000D1*
Y1717799D1*
X2708000D1*
X2723500D1*
X2756500Y1684799D1*
Y1394000D1*
X1944000Y1519000D2*
X1881500Y1456500D1*
Y1306500D1*
X2744000Y2244000D2*
D3*
X2756500Y1394000D2*
X3591500D1*
X3766500Y1219000D1*
X3733500Y1186000D1*
Y829500D1*
X3831500Y731500D1*
X1106500Y4031500D2*
Y4196500D1*
X1073500Y4229500D1*
X742000D1*
X644000Y4131500D1*
X2744000Y2244000D2*
X2654500Y2333500D1*
Y2851000D1*
X2687500Y2884000D1*
X2951472D1*
X2984472Y2917000D1*
Y3440622D1*
X3113370Y3569520D1*
Y3744000D1*
X3044000D1*
X3766500Y1219000D2*
X3906500D1*
X1307681Y1756500D2*
Y1669000D1*
X1206500D1*
X1506500Y1419000D2*
Y1557681D1*
X1307681Y1756500D1*
X1706500Y1194000D2*
X1539500D1*
X1506500Y1227000D1*
Y1419000D1*
X1881500Y1306500D2*
X1819000D1*
X1706500Y1194000D1*
X2744000Y2244000D2*
X2741000Y2241000D1*
Y1750799D1*
X2708000Y1717799D1*
D30*
X2217996Y1145008D3*
D14*
X1394000Y2456500D3*
D15*
X1494000D3*
X1594000D3*
D16*
X1656500Y2206500D3*
D17*
X1356500D3*
D16*
Y2006500D3*
D17*
X1656500D3*
D18*
X1281500Y2769000D3*
D19*
X1679138D3*
D20*
X1081500Y2056500D3*
D21*
Y2156500D3*
D18*
X1856500Y2294000D3*
D19*
Y1896362D3*
D20*
X2131500Y2069000D3*
D21*
Y2169000D3*
X1931500Y2481500D3*
D20*
X2031500D3*
D16*
X1081500Y2706500D3*
D17*
Y2406500D3*
D16*
X781500Y2381500D3*
D22*
Y2281500D3*
D14*
X1406500Y1419000D3*
D15*
X1506500D3*
X1606500D3*
D16*
X1706500Y1194000D3*
D17*
X1406500D3*
D16*
X1419000Y994000D3*
D17*
X1719000D3*
D18*
X1705319Y1756500D3*
D19*
X1307681D3*
D20*
X1206500Y1131500D3*
D21*
Y1031500D3*
D18*
X1881500Y1306500D3*
D19*
Y908862D3*
D20*
X2106500Y1056500D3*
D21*
Y1156500D3*
X1944000Y1519000D3*
D20*
X2044000D3*
D16*
X1206500Y1669000D3*
D17*
Y1369000D3*
D16*
X856500Y1281500D3*
D22*
Y1381500D3*
D23*
X806500Y1756500D3*
D24*
Y1856500D3*
D18*
X3231500Y3369000D3*
D19*
Y3269000D3*
Y3169000D3*
Y3069000D3*
Y2969000D3*
Y2869000D3*
Y2769000D3*
X3531500D3*
Y2869000D3*
Y2969000D3*
Y3069000D3*
Y3169000D3*
Y3269000D3*
Y3369000D3*
D16*
X3699993Y3175500D3*
D17*
X3999993D3*
D16*
X4212493Y3625500D3*
D22*
X4312493D3*
D16*
X3699993Y3013000D3*
D17*
X3999993D3*
D16*
X4212493Y2525500D3*
D22*
X4312493D3*
D16*
X3699993Y2850500D3*
D17*
X3999993D3*
D16*
X4212493Y3275500D3*
D22*
X4312493D3*
D16*
X3699993Y2675500D3*
D17*
X3999993D3*
D16*
X4212493Y2913000D3*
D22*
X4312493D3*
D20*
X3837493Y3413000D3*
D21*
Y3513000D3*
D20*
X3056500Y3069000D3*
D21*
Y3169000D3*
D18*
X3244000Y2231500D3*
D19*
Y2131500D3*
Y2031500D3*
Y1931500D3*
Y1831500D3*
Y1731500D3*
Y1631500D3*
X3544000D3*
Y1731500D3*
Y1831500D3*
Y1931500D3*
Y2031500D3*
Y2131500D3*
Y2231500D3*
D16*
X3694000Y2031500D3*
D17*
X3994000D3*
D16*
X4219000Y1844000D3*
D22*
X4319000D3*
D16*
X3694000Y1869000D3*
D17*
X3994000D3*
D16*
X4219000Y781500D3*
D22*
X4319000D3*
D16*
X3694000Y1706500D3*
D17*
X3994000D3*
D16*
X4219000Y1494000D3*
D22*
X4319000D3*
D16*
X3694000Y1544000D3*
D17*
X3994000D3*
D16*
X4219000Y1131500D3*
D22*
X4319000D3*
D20*
X3869000Y2294000D3*
D21*
Y2394000D3*
D20*
X3006500Y1931500D3*
D21*
Y2031500D3*
D18*
X2106500Y3369000D3*
D19*
Y3269000D3*
Y3169000D3*
Y3069000D3*
Y2969000D3*
Y2869000D3*
Y2769000D3*
X2406500D3*
Y2869000D3*
Y2969000D3*
Y3069000D3*
Y3169000D3*
Y3269000D3*
Y3369000D3*
D16*
X2556500Y3144000D3*
D17*
X2856500D3*
D16*
X2981500Y4119000D3*
D22*
X3081500D3*
D16*
X2556500Y2981500D3*
D17*
X2856500D3*
D16*
X3956500Y4119000D3*
D22*
X4056500D3*
D16*
X2556500Y2819000D3*
D17*
X2856500D3*
D16*
X3306500Y4131500D3*
D22*
X3406500D3*
D16*
X2556500Y2656500D3*
D17*
X2856500D3*
D16*
X3644000Y4119000D3*
D22*
X3744000D3*
D20*
X2706500Y3381500D3*
D21*
Y3481500D3*
D20*
X1919000Y3069000D3*
D21*
Y3169000D3*
D18*
X806500Y3019000D3*
D19*
X906500D3*
X1006500D3*
X1106500D3*
X1206500D3*
X1306500D3*
X1406500D3*
Y3319000D3*
X1306500D3*
X1206500D3*
X1106500D3*
X1006500D3*
X906500D3*
X806500D3*
D16*
X994000Y3444000D3*
D17*
Y3744000D3*
D16*
X1444000Y4106500D3*
D22*
X1544000D3*
D16*
X1156500Y3444000D3*
D17*
Y3744000D3*
D16*
X2394000Y4119000D3*
D22*
X2494000D3*
D16*
X1319000Y3444000D3*
D17*
Y3744000D3*
D16*
X1769000Y4119000D3*
D22*
X1869000D3*
D16*
X1494000Y3444000D3*
D17*
Y3744000D3*
D16*
X2094000Y4119000D3*
D22*
X2194000D3*
D20*
X719000Y3544000D3*
D21*
X619000D3*
D20*
X919000Y2794000D3*
D21*
X819000D3*
D18*
X2656500Y944000D3*
D19*
X2756500D3*
X2856500D3*
X2956500D3*
X3056501D3*
X3156501D3*
X3256500D3*
X3356501D3*
X3456501D3*
X3556500D3*
X2656501Y1244000D3*
X2756501D3*
X2856501D3*
X2956500D3*
X3056501D3*
X3156501D3*
X3256500D3*
X3356501D3*
X3456501D3*
X3556500D3*
D20*
X2444000Y944000D3*
D21*
X2344000D3*
D25*
X719000Y694000D3*
D26*
X904039D3*
X1089079D3*
D16*
X3156500Y469000D3*
D17*
Y769000D3*
D16*
X3431500Y619000D3*
D22*
X3331500D3*
D23*
X2131500Y706500D3*
D24*
Y529335D3*
X2387406D3*
Y706500D3*
D23*
X2569000D3*
D24*
Y529335D3*
X2824906D3*
Y706500D3*
D23*
X2662406Y1654335D3*
D24*
Y1831500D3*
X2406500D3*
Y1654335D3*
D16*
X2756500Y1394000D3*
D17*
X2456500D3*
D77*
X2981500Y2356500D3*
D27*
X2931500D3*
X2881500D3*
D16*
X2744000Y2244000D3*
D17*
X2444000D3*
D16*
Y2406500D3*
D17*
X2744000D3*
D80*
X3906500Y1169000D3*
D28*
Y1219000D3*
Y1269000D3*
D16*
X3831500Y1031500D3*
D17*
Y731500D3*
D16*
X3994000Y1031500D3*
D17*
Y731500D3*
D29*
X3044000Y3694000D3*
Y3744000D3*
Y3794000D3*
D16*
X3231500Y3656500D3*
D17*
X3531500D3*
D16*
Y3806500D3*
D17*
X3231500D3*
D83*
X1056500Y4031500D3*
D27*
X1106500D3*
X1156500D3*
D16*
X944000Y4131500D3*
D17*
X644000D3*
D16*
X944000Y3956500D3*
D17*
X644000D3*
M02*
